<svg width="24" height="24" viewBox="0 0 24 24" fill="none" xmlns="http://www.w3.org/2000/svg">
<path fill-rule="evenodd" clip-rule="evenodd" d="M10.501 4.53704C10.4489 3.64109 11.2318 3 12.0001 3C12.7685 3 13.5514 3.64109 13.4993 4.53704L13.125 14.6426C13.1204 14.9346 13.0025 15.2137 12.7956 15.4205C12.5847 15.6315 12.2985 15.75 12.0001 15.75C11.7018 15.75 11.4156 15.6315 11.2046 15.4205C10.9978 15.2137 10.8798 14.9346 10.8753 14.6426L10.501 4.53704Z" fill="white"/>
<path fill-rule="evenodd" clip-rule="evenodd" d="M10.5001 19.5C10.5001 18.6716 11.1717 18 12.0001 18C12.8286 18 13.5001 18.6716 13.5001 19.5C13.5001 20.3284 12.8286 21 12.0001 21C11.1717 21 10.5001 20.3284 10.5001 19.5Z" fill="white"/>
</svg>
